<?xml version="1.0" encoding="utf-8"?>
<!-- Generator: Adobe Illustrator 28.1.0, SVG Export Plug-In . SVG Version: 6.00 Build 0)  -->
<svg version="1.1" id="Layer_1" xmlns="http://www.w3.org/2000/svg" xmlns:xlink="http://www.w3.org/1999/xlink" x="0px" y="0px"
	 viewBox="0 0 24 53.73" style="enable-background:new 0 0 24 53.73;" xml:space="preserve">
<style type="text/css">
	.st0{fill:#494949;}
</style>
<g>
	<path class="st0" d="M3.61,23.68c0.61,0,1.22,0.28,1.61,0.81L23.6,49.36c0.66,0.89,0.47,2.14-0.42,2.8l-1.61,1.19
		c-0.36,0.26-0.77,0.39-1.19,0.39c-0.61,0-1.22-0.28-1.61-0.81L0.39,28.06c-0.32-0.43-0.45-0.96-0.37-1.49s0.36-1,0.79-1.31
		l1.61-1.19C2.78,23.81,3.19,23.68,3.61,23.68z"/>
	
		<rect x="-3.47" y="37.71" transform="matrix(-0.5946 -0.8041 0.8041 -0.5946 -11.99 71.3665)" class="st0" width="30.93" height="2"/>
	<path class="st0" d="M20.39,0c0.41,0,0.83,0.13,1.19,0.39l1.61,1.19c0.89,0.66,1.08,1.91,0.42,2.8L5.22,29.25
		c-0.39,0.53-1,0.81-1.61,0.81c-0.41,0-0.83-0.13-1.19-0.39l-1.61-1.19c-0.43-0.32-0.71-0.79-0.79-1.31s0.05-1.06,0.37-1.49
		L18.78,0.81C19.17,0.28,19.78,0,20.39,0z"/>
	
		<rect x="-3.47" y="14.03" transform="matrix(-0.5946 0.8041 -0.8041 -0.5946 31.2153 14.3157)" class="st0" width="30.93" height="2"/>
</g>
</svg>
