<?xml version="1.0" encoding="utf-8"?>
<!-- Generator: Adobe Illustrator 28.1.0, SVG Export Plug-In . SVG Version: 6.00 Build 0)  -->
<svg version="1.1" id="Layer_1" xmlns="http://www.w3.org/2000/svg" xmlns:xlink="http://www.w3.org/1999/xlink" x="0px" y="0px"
	 viewBox="0 0 24 53.73" style="enable-background:new 0 0 24 53.73;" xml:space="preserve">
<style type="text/css">
	.st0{fill:#494949;}
</style>
<g>
	<path class="st0" d="M20.39,30.06c-0.61,0-1.22-0.28-1.61-0.81L0.39,4.38c-0.66-0.89-0.47-2.14,0.42-2.8l1.61-1.19
		C2.78,0.13,3.19,0,3.61,0c0.61,0,1.22,0.28,1.61,0.81L23.6,25.68c0.32,0.43,0.45,0.96,0.37,1.49s-0.36,1-0.79,1.31l-1.61,1.19
		C21.22,29.93,20.8,30.06,20.39,30.06z"/>
	
		<rect x="-3.47" y="14.03" transform="matrix(0.5946 0.8041 -0.8041 0.5946 16.9479 -3.5539)" class="st0" width="30.93" height="2"/>
	<path class="st0" d="M3.61,53.73c-0.41,0-0.83-0.13-1.19-0.39l-1.61-1.19c-0.89-0.66-1.08-1.91-0.42-2.8l18.39-24.87
		c0.39-0.53,1-0.81,1.61-0.81c0.41,0,0.83,0.13,1.19,0.39l1.61,1.19c0.43,0.32,0.71,0.79,0.79,1.31s-0.05,1.06-0.37,1.49L5.22,52.92
		C4.82,53.45,4.22,53.73,3.61,53.73z"/>
	
		<rect x="-3.47" y="37.71" transform="matrix(0.5946 -0.8041 0.8041 0.5946 -26.2576 25.3402)" class="st0" width="30.93" height="2"/>
</g>
</svg>
