<?xml version="1.0" encoding="utf-8"?>
<!-- Generator: Adobe Illustrator 28.2.0, SVG Export Plug-In . SVG Version: 6.00 Build 0)  -->
<svg version="1.1" id="Layer_1" xmlns="http://www.w3.org/2000/svg" xmlns:xlink="http://www.w3.org/1999/xlink" x="0px" y="0px"
	 viewBox="0 0 25 25" style="enable-background:new 0 0 25 25;" xml:space="preserve">
<style type="text/css">
	.st0{fill:#FFFFFF;}
	.st1{fill:#E2E2E2;}
	.st2{fill:#FF4A81;}
</style>
<g>
	<g>
		<circle class="st0" cx="12.5" cy="12.5" r="12"/>
		<g>
			<path class="st1" d="M12.5,1C18.8,1,24,6.2,24,12.5S18.8,24,12.5,24S1,18.8,1,12.5S6.2,1,12.5,1 M12.5,0C5.6,0,0,5.6,0,12.5
				S5.6,25,12.5,25S25,19.4,25,12.5S19.4,0,12.5,0L12.5,0z"/>
		</g>
	</g>
	<g>
		<circle class="st2" cx="12.5" cy="12.5" r="8.3"/>
		<path class="st1" d="M12.5,4.7c4.3,0,7.8,3.5,7.8,7.8s-3.5,7.8-7.8,7.8s-7.8-3.5-7.8-7.8S8.2,4.7,12.5,4.7 M12.5,3.7
			c-4.9,0-8.8,4-8.8,8.8s4,8.8,8.8,8.8s8.8-4,8.8-8.8S17.4,3.7,12.5,3.7L12.5,3.7z"/>
	</g>
</g>
</svg>
