<?xml version="1.0" encoding="utf-8"?>
<!-- Generator: Adobe Illustrator 28.1.0, SVG Export Plug-In . SVG Version: 6.00 Build 0)  -->
<svg version="1.1" id="Layer_1" xmlns="http://www.w3.org/2000/svg" xmlns:xlink="http://www.w3.org/1999/xlink" x="0px" y="0px"
	 viewBox="0 0 25 25" style="enable-background:new 0 0 25 25;" xml:space="preserve">
<style type="text/css">
	.st0{fill:#FFFFFF;}
	.st1{fill:#E2E2E2;}
</style>
<g>
	<path class="st0" d="M5,24.5c-2.5,0-4.5-2-4.5-4.5V5c0-2.5,2-4.5,4.5-4.5h15c2.5,0,4.5,2,4.5,4.5v15c0,2.5-2,4.5-4.5,4.5H5z"/>
	<path class="st1" d="M20,1c2.2,0,4,1.8,4,4v15c0,2.2-1.8,4-4,4H5c-2.2,0-4-1.8-4-4V5c0-2.2,1.8-4,4-4H20 M20,0H5C2.2,0,0,2.2,0,5
		v15c0,2.8,2.2,5,5,5h15c2.8,0,5-2.2,5-5V5C25,2.2,22.8,0,20,0L20,0z"/>
</g>
</svg>
