<?xml version="1.0" encoding="utf-8"?>
<!-- Generator: Adobe Illustrator 28.2.0, SVG Export Plug-In . SVG Version: 6.00 Build 0)  -->
<svg version="1.1" id="Layer_1" xmlns="http://www.w3.org/2000/svg" xmlns:xlink="http://www.w3.org/1999/xlink" x="0px" y="0px"
	 viewBox="0 0 200 200" style="enable-background:new 0 0 200 200;" xml:space="preserve">
<style type="text/css">
	.st0{opacity:0.4;}
	.st1{fill:#FFFFFF;}
</style>
<g class="st0">
	<rect width="200" height="200"/>
	<g>
		<g>
			<path class="st1" d="M112.7,72.1l1.4,8.2l1.1,6.7h6.8h16.5v40.9H61.5V87H78h6.8l1.1-6.7l1.4-8.2H112.7 M119.5,64.1h-39L78,79
				H53.5v56.9h92.9V79H122L119.5,64.1L119.5,64.1z"/>
		</g>
		<g>
			<path class="st1" d="M100,97.4c4.5,0,8.2,3.7,8.2,8.2s-3.7,8.2-8.2,8.2s-8.2-3.7-8.2-8.2S95.5,97.4,100,97.4 M100,89.4
				c-8.9,0-16.2,7.2-16.2,16.2s7.2,16.2,16.2,16.2s16.2-7.2,16.2-16.2S108.9,89.4,100,89.4L100,89.4z"/>
		</g>
		<g>
			<polygon class="st1" points="73.7,91.4 66.2,91.4 66.2,98.8 73.7,98.8 73.7,91.4 			"/>
		</g>
	</g>
</g>
</svg>
