<?xml version="1.0" encoding="utf-8"?>
<!-- Generator: Adobe Illustrator 28.1.0, SVG Export Plug-In . SVG Version: 6.00 Build 0)  -->
<svg version="1.1" id="Layer_1" xmlns="http://www.w3.org/2000/svg" xmlns:xlink="http://www.w3.org/1999/xlink" x="0px" y="0px"
	 viewBox="0 0 25 25" style="enable-background:new 0 0 25 25;" xml:space="preserve">
<style type="text/css">
	.st0{fill:#757575;}
</style>
<g>
	<path class="st0" d="M24,4.29h-6.36C17.19,1.85,15.07,0,12.5,0S7.81,1.85,7.36,4.29H1c-0.55,0-1,0.45-1,1v5.21c0,0.55,0.45,1,1,1
		h2.37V24c0,0.55,0.45,1,1,1h16.26c0.55,0,1-0.45,1-1v-9.23c0-0.55-0.45-1-1-1s-1,0.45-1,1V23H5.37v-9.5v-2v-1.01
		c0-0.55-0.44-0.99-0.99-0.99H2V6.29h5.37h0.9h1.18h1.16h3.77h1.16h1.18h0.9H23V9.5h-2.37c-0.55,0-1,0.45-1,1c0,0.55,0.45,1,1,1H24
		c0.55,0,1-0.45,1-1V5.29C25,4.74,24.55,4.29,24,4.29z M15.04,4.29H9.96H9.42C9.83,2.97,11.05,2,12.5,2s2.67,0.97,3.08,2.29H15.04z"
		/>
	<path class="st0" d="M11.5,20.57V9.76c0-0.55,0.45-1,1-1h0c0.55,0,1,0.45,1,1v10.81c0,0.55-0.45,1-1,1h0
		C11.95,21.57,11.5,21.13,11.5,20.57z"/>
	<path class="st0" d="M15.58,20.57V9.76c0-0.55,0.45-1,1-1h0c0.55,0,1,0.45,1,1v10.81c0,0.55-0.45,1-1,1h0
		C16.03,21.57,15.58,21.13,15.58,20.57z"/>
	<path class="st0" d="M7.42,20.57V9.76c0-0.55,0.45-1,1-1h0c0.55,0,1,0.45,1,1v10.81c0,0.55-0.45,1-1,1h0
		C7.87,21.57,7.42,21.13,7.42,20.57z"/>
</g>
</svg>
