<?xml version="1.0" encoding="utf-8"?>
<!-- Generator: Adobe Illustrator 28.1.0, SVG Export Plug-In . SVG Version: 6.00 Build 0)  -->
<svg version="1.1" xmlns="http://www.w3.org/2000/svg" xmlns:xlink="http://www.w3.org/1999/xlink" x="0px" y="0px"
	 viewBox="0 0 112 20" style="enable-background:new 0 0 112 20;" xml:space="preserve">
<style type="text/css">
	.st0{fill:#FFE4A7;}
	.st1{fill:#CFCFCF;}
</style>
<g id="Layer_1">
	<g>
		<polygon class="st0" points="5.5,12.4 1.1,8.1 7.2,7.2 10,1.7 12.7,7.2 18.8,8.1 14.4,12.4 15.5,18.6 10,15.7 4.5,18.6 		"/>
		<path class="st0" d="M10,2.8l2.2,4.4l0.2,0.5l0.5,0.1l4.9,0.7l-3.5,3.4l-0.4,0.4l0.1,0.5l0.8,4.9l-4.4-2.3L10,15.1l-0.5,0.2
			l-4.4,2.3L6,12.8l0.1-0.5l-0.4-0.4L2.1,8.5L7,7.8l0.5-0.1l0.2-0.5L10,2.8 M10,0.5L6.9,6.8L0,7.8l5,4.9l-1.2,6.9l6.2-3.2l6.2,3.2
			l-1.2-6.9l5-4.9l-6.9-1L10,0.5L10,0.5z"/>
	</g>
	<g>
		<polygon class="st0" points="33,15.7 27.5,18.6 28.5,12.4 24.1,8.1 30.2,7.2 33,1.7 35.7,7.2 41.9,8.1 37.4,12.4 38.5,18.6 		"/>
		<path class="st0" d="M33,2.8l2.2,4.4l0.2,0.5l0.5,0.1l4.9,0.7l-3.5,3.4l-0.4,0.4l0.1,0.5l0.8,4.9l-4.4-2.3L33,15.1l-0.5,0.2
			l-4.4,2.3l0.8-4.9l0.1-0.5l-0.4-0.4l-3.5-3.4L30,7.8l0.5-0.1l0.2-0.5L33,2.8 M33,0.5l-3.1,6.2l-6.9,1l5,4.9l-1.2,6.9l6.2-3.2
			l6.2,3.2L38,12.6l5-4.9l-6.9-1L33,0.5L33,0.5z"/>
	</g>
	<g>
		<polygon class="st0" points="51.5,12.4 47.1,8.1 53.2,7.2 56,1.7 58.7,7.2 64.9,8.1 60.4,12.4 61.5,18.6 56,15.7 50.5,18.6 		"/>
		<path class="st0" d="M56,2.8l2.2,4.4l0.2,0.5l0.5,0.1l4.9,0.7l-3.5,3.4l-0.4,0.4l0.1,0.5l0.8,4.9l-4.4-2.3L56,15.1l-0.5,0.2
			l-4.4,2.3l0.8-4.9l0.1-0.5l-0.4-0.4l-3.5-3.4l4.9-0.7l0.5-0.1l0.2-0.5L56,2.8 M56,0.5l-3.1,6.2l-6.9,1l5,4.9l-1.2,6.9l6.2-3.2
			l6.2,3.2L61,12.6l5-4.9l-6.9-1L56,0.5L56,0.5z"/>
	</g>
	<g>
		<polygon class="st1" points="102,15.7 96.5,18.6 97.6,12.4 93.1,8.1 99.3,7.2 102,1.7 104.8,7.2 110.9,8.1 106.5,12.4 107.5,18.6 
					"/>
		<path class="st1" d="M102,2.8l2.2,4.4l0.2,0.5l0.5,0.1l4.9,0.7l-3.5,3.4l-0.4,0.4l0.1,0.5l0.8,4.9l-4.4-2.3l-0.5-0.2l-0.5,0.2
			l-4.4,2.3l0.8-4.9l0.1-0.5l-0.4-0.4l-3.5-3.4l4.9-0.7l0.5-0.1l0.2-0.5L102,2.8 M102,0.5l-3.1,6.2l-6.9,1l5,4.9l-1.2,6.9l6.2-3.2
			l6.2,3.2l-1.2-6.9l5-4.9l-6.9-1L102,0.5L102,0.5z"/>
	</g>
	<g>
		<g>
			<polygon class="st1" points="79,15.7 73.5,18.6 74.6,12.4 70.1,8.1 76.3,7.2 79,1.7 81.7,7.2 87.9,8.1 83.4,12.4 84.5,18.6 			
				"/>
			<path class="st1" d="M79,2.8l2.2,4.4l0.2,0.5l0.5,0.1l4.9,0.7l-3.5,3.4l-0.4,0.4l0.1,0.5l0.8,4.9l-4.4-2.3L79,15.1l-0.5,0.2
				l-4.4,2.3l0.8-4.9l0.1-0.5l-0.4-0.4l-3.5-3.4l4.9-0.7l0.5-0.1l0.2-0.5L79,2.8 M79,0.5l-3.1,6.2l-6.9,1l5,4.9l-1.2,6.9l6.2-3.2
				l6.2,3.2L84,12.6l5-4.9l-6.9-1L79,0.5L79,0.5z"/>
		</g>
		<g>
			<g>
				<polygon class="st0" points="74.6,12.4 70.1,8.1 76.3,7.2 78.5,2.7 78.5,15.9 73.5,18.6 				"/>
				<path class="st0" d="M78,4.8v10.8l-3.8,2l0.8-4.9l0.1-0.5l-0.4-0.4l-3.5-3.4l4.9-0.7l0.5-0.1l0.2-0.5L78,4.8 M79,0.5l-3.1,6.2
					l-6.9,1l5,4.9l-1.2,6.9l6.2-3.2V0.5L79,0.5z"/>
			</g>
		</g>
	</g>
</g>
<g id="Dimensions">
</g>
</svg>
