<?xml version="1.0" encoding="utf-8"?>
<!-- Generator: Adobe Illustrator 28.1.0, SVG Export Plug-In . SVG Version: 6.00 Build 0)  -->
<svg version="1.1" id="Layer_1" xmlns="http://www.w3.org/2000/svg" xmlns:xlink="http://www.w3.org/1999/xlink" x="0px" y="0px"
	 viewBox="0 0 25 25" style="enable-background:new 0 0 25 25;" xml:space="preserve">
<g>
	<path d="M22.4,16.8c-0.5-2.3-2.5-4-4.9-4s-4.4,1.7-4.9,4H0v2h12.6c0.5,2.3,2.5,4,4.9,4s4.4-1.7,4.9-4H25v-2H22.4z M17.5,20.8
		c-1.3,0-2.4-0.8-2.8-2c-0.1-0.3-0.2-0.6-0.2-1c0-0.4,0.1-0.7,0.2-1c0.4-1.2,1.5-2,2.8-2s2.4,0.8,2.8,2c0.1,0.3,0.2,0.6,0.2,1
		c0,0.4-0.1,0.7-0.2,1C19.9,20,18.8,20.8,17.5,20.8z"/>
	<path d="M0,6.2l0,2h2.6c0.5,2.3,2.5,4,4.9,4s4.4-1.7,4.9-4H25v-2H12.4c-0.5-2.3-2.5-4-4.9-4s-4.4,1.7-4.9,4H0z M4.7,8.2
		c-0.1-0.3-0.2-0.6-0.2-1c0-0.4,0.1-0.7,0.2-1c0.4-1.2,1.5-2,2.8-2s2.4,0.8,2.8,2c0.1,0.3,0.2,0.6,0.2,1c0,0.4-0.1,0.7-0.2,1
		c-0.4,1.2-1.5,2-2.8,2S5.1,9.3,4.7,8.2z"/>
</g>
</svg>
