<?xml version="1.0" encoding="utf-8"?>
<!-- Generator: Adobe Illustrator 28.1.0, SVG Export Plug-In . SVG Version: 6.00 Build 0)  -->
<svg version="1.1" id="Layer_1" xmlns="http://www.w3.org/2000/svg" xmlns:xlink="http://www.w3.org/1999/xlink" x="0px" y="0px"
	 viewBox="0 0 25 25" style="enable-background:new 0 0 25 25;" xml:space="preserve">
<style type="text/css">
	.st0{fill:#757575;}
</style>
<g>
	<g>
		<path class="st0" d="M12.5,2.4c2.5,0,4.53,2.03,4.53,4.53S15,11.46,12.5,11.46S7.97,9.42,7.97,6.93S10,2.4,12.5,2.4 M12.5,0.4
			c-3.61,0-6.53,2.92-6.53,6.53s2.92,6.53,6.53,6.53s6.53-2.92,6.53-6.53S16.11,0.4,12.5,0.4L12.5,0.4z"/>
	</g>
	<g>
		<path class="st0" d="M12.5,17.6c7.43,0,9.69,2.38,10.3,5H12.5H2.2C2.81,19.98,5.07,17.6,12.5,17.6 M12.5,15.6
			c-5.24,0-12.5,0.99-12.5,9h12.5H25C25,16.59,17.74,15.6,12.5,15.6L12.5,15.6z"/>
	</g>
</g>
</svg>
