<?xml version="1.0" encoding="utf-8"?>
<!-- Generator: Adobe Illustrator 28.1.0, SVG Export Plug-In . SVG Version: 6.00 Build 0)  -->
<svg version="1.1" id="Layer_1" xmlns="http://www.w3.org/2000/svg" xmlns:xlink="http://www.w3.org/1999/xlink" x="0px" y="0px"
	 viewBox="0 0 25 25" style="enable-background:new 0 0 25 25;" xml:space="preserve">
<style type="text/css">
	.st0{fill:#757575;}
</style>
<g>
	<path class="st0" d="M18.74,13.92c0.36,0,0.69-0.19,0.87-0.51l5.26-9.33c0.17-0.31,0.17-0.69-0.01-1c-0.18-0.31-0.51-0.5-0.86-0.5
		H5.11L4.14,0.57C3.98,0.22,3.63,0,3.24,0H0v2h2.61l4.93,10.38l-3.09,4.25c-0.22,0.3-0.25,0.71-0.08,1.04
		c0.17,0.34,0.51,0.55,0.89,0.55h16.41v-2H7.22l1.67-2.29H18.74z M6.06,4.59h16.24l-4.13,7.33H9.54L6.06,4.59z"/>
	<g>
		<circle class="st0" cx="7.21" cy="22.23" r="2.77"/>
	</g>
	<g>
		<circle class="st0" cx="18.91" cy="22.23" r="2.77"/>
	</g>
</g>
</svg>
