<?xml version="1.0" encoding="utf-8"?>
<!-- Generator: Adobe Illustrator 28.1.0, SVG Export Plug-In . SVG Version: 6.00 Build 0)  -->
<svg version="1.1" id="Layer_1" xmlns="http://www.w3.org/2000/svg" xmlns:xlink="http://www.w3.org/1999/xlink" x="0px" y="0px"
	 viewBox="0 0 48 48" style="enable-background:new 0 0 48 48;" xml:space="preserve">
<style type="text/css">
	.st0{fill-rule:evenodd;clip-rule:evenodd;fill:#242424;}
</style>
<g>
	<g transform="translate(-642.000000, -295.000000)">
		<path class="st0" d="M666,295c-6.5,0-7.3,0-9.9,0.1c-2.6,0.1-4.3,0.5-5.8,1.1c-1.6,0.6-2.9,1.4-4.3,2.8c-1.3,1.3-2.2,2.7-2.8,4.3
			c-0.6,1.5-1,3.3-1.1,5.8c-0.1,2.6-0.1,3.4-0.1,9.9s0,7.3,0.1,9.9s0.5,4.3,1.1,5.8c0.6,1.6,1.4,2.9,2.8,4.3
			c1.3,1.3,2.7,2.2,4.3,2.8c1.5,0.6,3.3,1,5.8,1.1c2.6,0.1,3.4,0.1,9.9,0.1s7.3,0,9.9-0.1c2.6-0.1,4.3-0.5,5.8-1.1
			c1.6-0.6,2.9-1.4,4.3-2.8c1.3-1.3,2.2-2.7,2.8-4.3c0.6-1.5,1-3.3,1.1-5.8c0.1-2.6,0.1-3.4,0.1-9.9s0-7.3-0.1-9.9s-0.5-4.3-1.1-5.8
			c-0.6-1.6-1.4-2.9-2.8-4.3c-1.3-1.3-2.7-2.2-4.3-2.8c-1.5-0.6-3.3-1-5.8-1.1C673.3,295,672.5,295,666,295z M666,299.3
			c6.4,0,7.2,0,9.7,0.1c2.3,0.1,3.6,0.5,4.5,0.8c1.1,0.4,1.9,1,2.8,1.8c0.8,0.8,1.4,1.6,1.8,2.8c0.3,0.8,0.7,2.1,0.8,4.5
			c0.1,2.5,0.1,3.3,0.1,9.7c0,6.4,0,7.2-0.1,9.7c-0.1,2.3-0.5,3.6-0.8,4.5c-0.4,1.1-1,1.9-1.8,2.8c-0.8,0.8-1.6,1.4-2.8,1.8
			c-0.8,0.3-2.1,0.7-4.5,0.8c-2.5,0.1-3.3,0.1-9.7,0.1s-7.2,0-9.7-0.1c-2.3-0.1-3.6-0.5-4.5-0.8c-1.1-0.4-1.9-1-2.8-1.8
			c-0.8-0.8-1.4-1.6-1.8-2.8c-0.3-0.8-0.7-2.1-0.8-4.5c-0.1-2.5-0.1-3.3-0.1-9.7c0-6.4,0-7.2,0.1-9.7c0.1-2.3,0.5-3.6,0.8-4.5
			c0.4-1.1,1-1.9,1.8-2.8c0.8-0.8,1.6-1.4,2.8-1.8c0.8-0.3,2.1-0.7,4.5-0.8C658.8,299.3,659.6,299.3,666,299.3z M666,306.7
			c-6.8,0-12.3,5.5-12.3,12.3s5.5,12.3,12.3,12.3s12.3-5.5,12.3-12.3S672.8,306.7,666,306.7z M666,327c-4.4,0-8-3.6-8-8s3.6-8,8-8
			s8,3.6,8,8S670.4,327,666,327z M681.7,306.2c0,1.6-1.3,2.9-2.9,2.9c-1.6,0-2.9-1.3-2.9-2.9s1.3-2.9,2.9-2.9
			C680.4,303.3,681.7,304.6,681.7,306.2z"/>
	</g>
	<g transform="translate(-1734.000000, -472.000000)">
	</g>
</g>
</svg>
