<?xml version="1.0" encoding="utf-8"?>
<!-- Generator: Adobe Illustrator 28.2.0, SVG Export Plug-In . SVG Version: 6.00 Build 0)  -->
<svg version="1.1" id="Layer_1" xmlns="http://www.w3.org/2000/svg" xmlns:xlink="http://www.w3.org/1999/xlink" x="0px" y="0px"
	 viewBox="0 0 25 25" style="enable-background:new 0 0 25 25;" xml:space="preserve">
<style type="text/css">
	.st0{fill:#757575;}
	.st1{fill:none;stroke:#757575;stroke-width:2;stroke-linejoin:round;stroke-miterlimit:10;}
	.st2{fill:none;stroke:#757575;stroke-width:1.5;stroke-linecap:round;stroke-linejoin:round;stroke-miterlimit:10;}
	.st3{fill:none;stroke:#757575;stroke-width:2;stroke-linecap:round;stroke-linejoin:round;stroke-miterlimit:10;}
</style>
<g>
	<g>
		<path class="st0" d="M23,4.8v16.5H2V4.8H23 M23.7,2.8H1.3C0.6,2.8,0,3.3,0,4.1v18c0,0.7,0.6,1.3,1.3,1.3h22.4
			c0.7,0,1.3-0.6,1.3-1.3v-18C25,3.3,24.4,2.8,23.7,2.8L23.7,2.8z"/>
	</g>
	<line class="st1" x1="1" y1="8.6" x2="23.5" y2="8.6"/>
	<line class="st2" x1="11.1" y1="12.4" x2="13.9" y2="12.4"/>
	<line class="st2" x1="4.6" y1="12.4" x2="7.5" y2="12.4"/>
	<line class="st2" x1="20.3" y1="12.4" x2="17.5" y2="12.4"/>
	<line class="st2" x1="11.1" y1="15.3" x2="13.9" y2="15.3"/>
	<line class="st2" x1="4.6" y1="15.3" x2="7.5" y2="15.3"/>
	<line class="st2" x1="20.3" y1="15.3" x2="17.5" y2="15.3"/>
	<line class="st2" x1="11.1" y1="18.3" x2="13.9" y2="18.3"/>
	<line class="st2" x1="4.6" y1="18.3" x2="7.5" y2="18.3"/>
	<line class="st2" x1="20.3" y1="18.3" x2="17.5" y2="18.3"/>
	<line class="st3" x1="12.3" y1="5.6" x2="12.3" y2="1.7"/>
	<line class="st3" x1="18.9" y1="5.6" x2="18.9" y2="1.7"/>
	<line class="st3" x1="6" y1="5.6" x2="6" y2="1.7"/>
</g>
</svg>
