<?xml version="1.0" encoding="utf-8"?>
<!-- Generator: Adobe Illustrator 28.2.0, SVG Export Plug-In . SVG Version: 6.00 Build 0)  -->
<svg version="1.1" id="Layer_1" xmlns="http://www.w3.org/2000/svg" xmlns:xlink="http://www.w3.org/1999/xlink" x="0px" y="0px"
	 viewBox="0 0 25 25" style="enable-background:new 0 0 25 25;" xml:space="preserve">
<style type="text/css">
	.st0{fill:#FF4A81;}
</style>
<path class="st0" d="M13.3,0C8.4-0.4,4.2,3.4,4.2,8.3c0,5.8,3.7,12.1,6.2,15.6c1,1.5,3.2,1.5,4.2,0c2.3-3.3,5.8-9.2,6.1-14.7
	C21.1,4.7,17.9,0.5,13.3,0z M12.5,13.7c-3,0-5.4-2.4-5.4-5.4c0-3,2.4-5.4,5.4-5.4c3,0,5.4,2.4,5.4,5.4
	C17.9,11.2,15.5,13.7,12.5,13.7z"/>
</svg>
