<?xml version="1.0" encoding="utf-8"?>
<!-- Generator: Adobe Illustrator 28.1.0, SVG Export Plug-In . SVG Version: 6.00 Build 0)  -->
<svg version="1.1" id="Layer_1" xmlns="http://www.w3.org/2000/svg" xmlns:xlink="http://www.w3.org/1999/xlink" x="0px" y="0px"
	 viewBox="0 0 104 36" style="enable-background:new 0 0 104 36;" xml:space="preserve">
<style type="text/css">
	.st0{fill:#B2FCE4;}
</style>
<path class="st0" d="M86,35.9H18c-9.9,0-17.9-8-17.9-17.9l0,0c0-9.9,8-17.9,17.9-17.9h68c9.9,0,17.9,8,17.9,17.9l0,0
	C103.9,27.9,95.9,35.9,86,35.9z"/>
<g>
	<path d="M88.2,13.5L86,12.2l-2.3-1.3c-1.5-0.9-3.4,0.2-3.4,2v0.3c0,0.2,0.1,0.3,0.2,0.4l1.1,0.6c0.3,0.2,0.7,0,0.7-0.4v-0.7
		c0-0.3,0.4-0.6,0.7-0.4l2.1,1.2l2.1,1.2c0.3,0.2,0.3,0.6,0,0.8L85,17.1l-2.1,1.2c-0.3,0.2-0.7,0-0.7-0.4v-0.3c0-1.7-1.9-2.8-3.4-2
		l-2.3,1.3l-2.3,1.3c-1.5,0.9-1.5,3.1,0,4l2.3,1.3l2.3,1.3c1.5,0.9,3.4-0.2,3.4-2v-0.3c0-0.2-0.1-0.3-0.2-0.4l-1.1-0.6
		c-0.3-0.2-0.7,0-0.7,0.4v0.7c0,0.3-0.4,0.6-0.7,0.4l-2.1-1.2l-2.1-1.2c-0.3-0.2-0.3-0.6,0-0.8l2.1-1.2l2.1-1.2
		c0.3-0.2,0.7,0,0.7,0.4v0.3c0,1.7,1.9,2.8,3.4,2l2.3-1.3l2.3-1.3C89.8,16.6,89.8,14.4,88.2,13.5z"/>
	<path d="M73.4,14l-5.3,10.9h-2.2l2-4.1L64.8,14H67l2,4.6l2.2-4.6C71.2,14,73.4,14,73.4,14z"/>
	<path d="M20.5,17.8c0-1.3-0.9-2.2-2.1-2.2s-2.1,0.9-2.1,2.2c0,1.3,0.9,2.2,2.1,2.2S20.5,19.1,20.5,17.8 M20.5,21.7v-1
		c-0.6,0.7-1.4,1.1-2.4,1.1c-2.1,0-3.7-1.7-3.7-4c0-2.3,1.7-4,3.8-4c1,0,1.8,0.4,2.4,1.1v-1h1.9v7.8C22.5,21.7,20.5,21.7,20.5,21.7z
		"/>
	<path d="M31.7,20c-0.7,0-0.9-0.2-0.9-0.9v-3.4h1.2V14h-1.2v-1.9h-2V14h-2.5v-0.8c0-0.7,0.2-0.9,0.9-0.9h0.4v-1.5h-0.9
		c-1.6,0-2.4,0.5-2.4,2.1v1h-1.1v1.7h1.1v6.1h2v-6.1h2.5v3.8c0,1.6,0.6,2.3,2.2,2.3h1V20C32.1,20,31.7,20,31.7,20z"/>
	<path d="M38.7,17.1c-0.1-1-1-1.6-1.9-1.6c-1,0-1.8,0.6-2,1.6H38.7z M34.8,18.3c0.1,1.1,1,1.8,2,1.8c0.8,0,1.5-0.4,1.8-1h2
		c-0.5,1.6-1.9,2.7-3.9,2.7c-2.3,0-4-1.6-4-4s1.7-4,4-4c2.3,0,4,1.7,4,4c0,0.2,0,0.3,0,0.5C40.8,18.3,34.8,18.3,34.8,18.3z"/>
	<path d="M53.3,17.8c0-1.3-0.9-2.2-2.1-2.2S49,16.5,49,17.8c0,1.3,0.9,2.2,2.1,2.2S53.3,19.1,53.3,17.8 M47.1,24.9V14H49v1
		c0.6-0.7,1.4-1.1,2.4-1.1c2.1,0,3.7,1.7,3.7,4s-1.7,4-3.8,4c-1,0-1.8-0.4-2.3-1v4.1L47.1,24.9L47.1,24.9z"/>
	<path d="M62.1,17.8c0-1.3-0.9-2.2-2.1-2.2s-2.1,0.9-2.1,2.2c0,1.3,0.9,2.2,2.1,2.2S62.1,19.1,62.1,17.8 M62.1,21.7v-1
		c-0.6,0.7-1.4,1.1-2.4,1.1c-2.1,0-3.7-1.7-3.7-4c0-2.3,1.7-4,3.8-4c1,0,1.8,0.4,2.4,1.1v-1H64v7.8C64,21.7,62.1,21.7,62.1,21.7z"/>
	<path d="M43.7,14.7c0,0,0.5-0.9,1.7-0.9c0.5,0,0.8,0.2,0.8,0.2v2c0,0-0.7-0.4-1.4-0.4c-0.7,0.1-1.1,0.7-1.1,1.5v4.6h-2V14h1.9
		L43.7,14.7L43.7,14.7z"/>
</g>
</svg>
